<?xml version="1.0" encoding="utf-8"?>
<!-- Generator: Adobe Illustrator 27.0.1, SVG Export Plug-In . SVG Version: 6.00 Build 0)  -->
<svg version="1.1" id="Layer_1" xmlns="http://www.w3.org/2000/svg" xmlns:xlink="http://www.w3.org/1999/xlink" x="0px" y="0px"
	 viewBox="0 0 350 350" style="enable-background:new 0 0 350 350;" xml:space="preserve">
<path d="M14.3,176.1c0-0.7,0-1.3,0-2v4C14.3,177.5,14.3,176.8,14.3,176.1z"/>
<path d="M175,0C78.4,0,0,78.4,0,175s78.4,175,175,175s175-78.4,175-175S271.6,0,175,0z M271.9,150.7c-24.5,24.6-49.5,48.6-73.5,73.7
	c-17,17.9-28.6,18.6-46,0.1c-23.7-25-48.7-49-73.1-73.5c-9.9-9.9-10.7-22.3-1.9-31.1c8.8-9,21.4-8.4,31.3,1.7
	c21.9,22,43.8,44.2,66.9,67.5c22.9-23.3,44.9-45.8,67-68.2c9.5-9.7,22.7-9.7,31.1-0.5C281.7,129.6,281.2,141.5,271.9,150.7z"/>
</svg>
